<?xml version="1.0" encoding="utf-8"?>
<!-- Generator: Adobe Illustrator 17.1.0, SVG Export Plug-In . SVG Version: 6.00 Build 0)  -->
<!DOCTYPE svg PUBLIC "-//W3C//DTD SVG 1.1//EN" "http://www.w3.org/Graphics/SVG/1.1/DTD/svg11.dtd">
<svg version="1.1" id="Calque_1" xmlns="http://www.w3.org/2000/svg" xmlns:xlink="http://www.w3.org/1999/xlink" x="0px" y="0px"
	 viewBox="0 0 367 125.8" enable-background="new 0 0 367 125.8" xml:space="preserve">
<g>
	<path fill="#FFFFFF" d="M6.3,67.3v-1c0-21.4,16.4-34.6,36.5-34.6c18.5,0,34.2,10.6,34.7,34.2v6H31.4c0.6,7.9,5.3,12.2,12.3,12.2
		c6.9,0,9.6-3.3,10.3-7h23.1c-2,15.1-13.5,23.9-34.3,23.9C21.8,101,6.3,89,6.3,67.3z M53.1,59c-0.3-7-3.6-11.3-10.3-11.3
		c-6,0-10.3,3.9-11.3,11.3H53.1z"/>
	<path fill="#FFFFFF" d="M82.4,5h24.8v53.5l16-24.9h25.4L128.3,63l21.9,36.4h-27.4l-15.6-27.4v27.4H82.4V5z"/>
	<path fill="#FFFFFF" d="M153.3,33.6h24.7v65.8h-24.7V33.6z"/>
	<path fill="#FFFFFF" d="M187.7,33.6h24.8v10.6c3.6-6.9,10.7-12.3,21.8-12.3c12.5,0,21.1,7.9,21.1,24.3v43.3h-24.8V61.6
		c0-6.7-2.4-10.1-8.3-10.1c-6.2,0-9.8,3.6-9.8,11.4v36.4h-24.8V33.6z"/>
	<path fill="#FFFFFF" d="M260.4,67.3v-1c0-21.4,16-34.5,36.7-34.5c20.5,0,36.5,12.7,36.5,33.8v1c0,21.6-16.1,34.3-36.6,34.3
		C276.5,101,260.4,88.9,260.4,67.3z M308.4,66.8v-0.9c0-10.3-3.6-15.9-11.3-15.9c-7.5,0-11.7,5.2-11.7,15.5v1
		c0,10.7,3.8,16.2,11.7,16.2C304.6,82.7,308.4,77.2,308.4,66.8z"/>
	<circle fill="#FFFFFF" cx="165.6" cy="15.5" r="13.1"/>
	<circle fill="#FFFFFF" cx="348.3" cy="87.9" r="13.1"/>
</g>
<g>
</g>
<g>
</g>
<g>
</g>
<g>
</g>
<g>
</g>
<g>
</g>
</svg>
