<?xml version="1.0" encoding="utf-8"?>
<!-- Generator: Adobe Illustrator 17.1.0, SVG Export Plug-In . SVG Version: 6.00 Build 0)  -->
<!DOCTYPE svg PUBLIC "-//W3C//DTD SVG 1.1//EN" "http://www.w3.org/Graphics/SVG/1.1/DTD/svg11.dtd">
<svg version="1.1" id="Calque_1" xmlns="http://www.w3.org/2000/svg" xmlns:xlink="http://www.w3.org/1999/xlink" x="0px" y="0px"
	 viewBox="0 0 334 125.8" enable-background="new 0 0 334 125.8" xml:space="preserve">
<g>
	<path fill="#FFFFFF" d="M81.6,34h22.4v9.8c3.8-6.3,10.5-11.5,20.4-11.5c15.3,0,27.7,11.5,27.7,34v1c0,22.6-12.4,33.8-27.8,33.8
		c-9.9,0-17-4.6-20.3-11.2v31.6H81.6V34z M129.4,67.2v-1c0-11.5-5-17-12.9-17c-8.1,0-13,5.9-13,16.9v1c0,11.2,4.9,16.8,13,16.8
		C124.9,83.8,129.4,78,129.4,67.2z"/>
	<path fill="#FFFFFF" d="M155.7,67.6v-1c0-21.1,15.7-34.3,35.5-34.3c17.9,0,33.3,10.3,33.3,33.8v5.9h-46.1
		c0.6,8.6,5.6,13.7,13.7,13.7c7.4,0,10.5-3.4,11.4-7.8h21.1c-2,14.8-13.4,23.2-33.2,23.2C170.7,101,155.7,89,155.7,67.6z
		 M202.7,59.3c-0.4-7.9-4.3-12.3-11.5-12.3c-6.8,0-11.4,4.4-12.5,12.3H202.7z"/>
	<path fill="#FFFFFF" d="M229.1,34h22.4v10.5c3.5-6.8,10.7-12.3,21.6-12.3c12.7,0,21.4,7.9,21.4,24.7v42.6h-22.4V61.4
		c0-7.4-2.9-11-9.4-11c-6.6,0-11.2,4-11.2,12.4v36.7h-22.4V34z"/>
	<path fill="#FFFFFF" d="M301.5,88c0-7.1,5.5-12.9,13-12.9c7.6,0,13.4,5.7,13.4,12.9c0,7.1-5.7,12.9-13.4,12.9
		C306.9,100.9,301.5,95.2,301.5,88z"/>
	<g>
		<path fill="#FFFFFF" d="M6.2,67.6v-1c0-21.1,15.7-34.3,36-34.3c20.2,0,35.7,12.9,35.7,33.7v1C77.8,88.2,62.2,101,42,101
			C21.8,101,6.2,88.7,6.2,67.6z M55,67.2v-1c0-11-4.4-17.2-12.9-17.2c-8.4,0-13,5.9-13,16.9v1c0,11.3,4.4,17.4,13,17.4
			C50.5,84.4,55,78.1,55,67.2z"/>
	</g>
</g>
<g>
</g>
<g>
</g>
<g>
</g>
<g>
</g>
<g>
</g>
<g>
</g>
</svg>
